<svg width="16" height="16" viewBox="0 0 16 16" fill="none" xmlns="http://www.w3.org/2000/svg">
<path d="M6.37996 12.5467C6.25329 12.5467 6.12663 12.5001 6.02663 12.4001L1.97996 8.35341C1.78663 8.16008 1.78663 7.84008 1.97996 7.64674L6.02663 3.60008C6.21996 3.40674 6.53996 3.40674 6.73329 3.60008C6.92663 3.79341 6.92663 4.11341 6.73329 4.30674L3.03996 8.00008L6.73329 11.6934C6.92663 11.8867 6.92663 12.2067 6.73329 12.4001C6.63996 12.5001 6.50663 12.5467 6.37996 12.5467Z" fill="#2B303B"/>
<path d="M13.6666 8.50008H2.44663C2.17329 8.50008 1.94663 8.27341 1.94663 8.00008C1.94663 7.72674 2.17329 7.50008 2.44663 7.50008H13.6666C13.94 7.50008 14.1666 7.72674 14.1666 8.00008C14.1666 8.27341 13.94 8.50008 13.6666 8.50008Z" fill="#2B303B"/>
</svg>
