<svg xmlns="http://www.w3.org/2000/svg" xmlns:xlink="http://www.w3.org/1999/xlink"><symbol id="icon-arrow-left" viewBox="0 0 16 16">
<path d="M6.37996 12.5467C6.25329 12.5467 6.12663 12.5001 6.02663 12.4001L1.97996 8.35341C1.78663 8.16008 1.78663 7.84008 1.97996 7.64674L6.02663 3.60008C6.21996 3.40674 6.53996 3.40674 6.73329 3.60008C6.92663 3.79341 6.92663 4.11341 6.73329 4.30674L3.03996 8.00008L6.73329 11.6934C6.92663 11.8867 6.92663 12.2067 6.73329 12.4001C6.63996 12.5001 6.50663 12.5467 6.37996 12.5467Z" fill="#2B303B"/>
<path d="M13.6666 8.50008H2.44663C2.17329 8.50008 1.94663 8.27341 1.94663 8.00008C1.94663 7.72674 2.17329 7.50008 2.44663 7.50008H13.6666C13.94 7.50008 14.1666 7.72674 14.1666 8.00008C14.1666 8.27341 13.94 8.50008 13.6666 8.50008Z" fill="#2B303B"/>
</symbol><symbol id="icon-close" viewBox="0 0 20 20"><path d="M.293 18.291a1 1 0 101.414 1.414L10 11.413l8.292 8.292a1 1 0 101.414-1.414l-8.292-8.292 8.292-8.292A1 1 0 1018.291.293L9.999 8.585 1.707.293A1 1 0 10.293 1.707L8.585 10 .293 18.291z"/></symbol><symbol id="icon-copy" viewBox="0 0 16 16">
<path d="M7.39998 15.1668H4.59998C1.99331 15.1668 0.833313 14.0068 0.833313 11.4002V8.60016C0.833313 5.9935 1.99331 4.8335 4.59998 4.8335H7.39998C10.0066 4.8335 11.1666 5.9935 11.1666 8.60016V11.4002C11.1666 14.0068 10.0066 15.1668 7.39998 15.1668ZM4.59998 5.8335C2.53331 5.8335 1.83331 6.5335 1.83331 8.60016V11.4002C1.83331 13.4668 2.53331 14.1668 4.59998 14.1668H7.39998C9.46665 14.1668 10.1666 13.4668 10.1666 11.4002V8.60016C10.1666 6.5335 9.46665 5.8335 7.39998 5.8335H4.59998Z" fill="#007BFB"/>
<path d="M11.4 11.1668H10.6666C10.3933 11.1668 10.1666 10.9402 10.1666 10.6668V8.60016C10.1666 6.5335 9.46665 5.8335 7.39998 5.8335H5.33331C5.05998 5.8335 4.83331 5.60683 4.83331 5.3335V4.60016C4.83331 1.9935 5.99331 0.833496 8.59998 0.833496H11.4C14.0066 0.833496 15.1666 1.9935 15.1666 4.60016V7.40016C15.1666 10.0068 14.0066 11.1668 11.4 11.1668ZM11.1666 10.1668H11.4C13.4666 10.1668 14.1666 9.46683 14.1666 7.40016V4.60016C14.1666 2.5335 13.4666 1.8335 11.4 1.8335H8.59998C6.53331 1.8335 5.83331 2.5335 5.83331 4.60016V4.8335H7.39998C10.0066 4.8335 11.1666 5.9935 11.1666 8.60016V10.1668Z" fill="#007BFB"/>
</symbol><symbol id="icon-hand" viewBox="0 0 22 23">
<path d="M0 22.54H22V0.54H0V22.54Z" fill="#2B303B"/>
</symbol></svg>